<svg width="190" height="90" viewBox="0 0 190 90" fill="none" xmlns="http://www.w3.org/2000/svg">
<path d="M0.96 90V0.399994H21.824L71.232 60.048H61.376V0.399994H86.208V90H65.344L15.936 30.352H25.792V90H0.96ZM104.085 90V0.399994H149.909C161.685 0.399994 170.474 2.57599 176.277 6.92799C182.08 11.1947 184.981 16.8267 184.981 23.824C184.981 28.432 183.744 32.4853 181.269 35.984C178.88 39.3973 175.466 42.128 171.029 44.176C166.677 46.1387 161.472 47.12 155.413 47.12L157.973 40.976C164.288 40.976 169.792 41.9573 174.485 43.92C179.178 45.7973 182.805 48.5707 185.365 52.24C188.01 55.824 189.333 60.2187 189.333 65.424C189.333 73.1893 186.176 79.248 179.861 83.6C173.632 87.8667 164.501 90 152.469 90H104.085ZM129.173 71.696H150.421C154.773 71.696 158.058 70.9707 160.277 69.52C162.581 67.984 163.733 65.68 163.733 62.608C163.733 59.536 162.581 57.2747 160.277 55.824C158.058 54.288 154.773 53.52 150.421 53.52H127.381V35.984H146.581C150.848 35.984 154.048 35.2587 156.181 33.808C158.314 32.3573 159.381 30.1813 159.381 27.28C159.381 24.3787 158.314 22.2453 156.181 20.88C154.048 19.4293 150.848 18.704 146.581 18.704H129.173V71.696Z" fill="white"/>
</svg>
